<svg version="1.1" id="Layer_1" xmlns="http://www.w3.org/2000/svg" xmlns:xlink="http://www.w3.org/1999/xlink" x="0px" y="0px"
	 viewBox="0 0 500 500" style="enable-background:new 0 0 500 500;" xml:space="preserve">
<style type="text/css">
	.st0{fill:#5E421F;}
</style>
<g>
	<path class="st0" d="M250.2,111.2c13.5,0,26.3-2.6,37.6-7.2c-12.2,7-27.6,8-37.6,8c-9.9,0-25.3-0.9-37.5-8
		C224,108.7,236.7,111.2,250.2,111.2z"/>
	<path class="st0" d="M250.2,99.1c10.8,0,20.9-1.6,29.8-4.6c-9.2,4.1-20,4.7-29.8,4.7c-9.8,0-20.6-0.6-29.7-4.7
		C229.4,97.5,239.4,99.1,250.2,99.1z"/>
	<path class="st0" d="M250.2,88.6c8.1,0,15.8-1,22.8-2.7c-7.3,2.5-15.4,2.8-22.8,2.8c-7.5,0-15.5-0.4-22.8-2.8
		C234.5,87.7,242.2,88.6,250.2,88.6z"/>
	<path class="st0" d="M250.2,27.4c7.7,0,14,9.3,14,20.7s-6.3,20.7-14,20.7s-14-9.3-14-20.7S242.5,27.4,250.2,27.4z"/>
	<path class="st0" d="M304.3,43c10.6,9.8,17.5,23.5,19.6,38.6c1.8,13.1-1.5,25.5-8.2,35.5c3.8-5.4,6.7-11.6,8.6-18.4
		c3.4-12.5,2.5-25-2.6-36.1C317.8,54,311.8,47.6,304.3,43z"/>
	<path class="st0" d="M196.1,43c-7.4,4.6-13.5,11-17.4,19.6c-5.2,11.1-6,23.6-2.6,36.1c1.9,6.8,4.8,13,8.6,18.4
		c-6.7-10-10-22.4-8.2-35.5C178.7,66.5,185.5,52.8,196.1,43z"/>
	<path class="st0" d="M409.3,170c-11.4-10.2-25.1-17.9-39.8-22.2c-16.8-4.9-34.7-6.3-52.1-4.4c-18.4,2.1-34.6,11.3-47.3,24.8
		c1.4-5,3.3-9.9,5.9-14.6c-3.8,2.3-7.2,4.9-10.1,7.7c3.2-6.9,7.5-13.5,12.7-19.4c-8.4,3.9-16,8.9-22.5,15c-2.6,2.4-4.9,4.9-7.1,7.5
		c-3.1-9.1-2.6-18.9,1.9-27.8c-2.7,8.5-4,17.4-4,26.3c0,4.6,0.3,9.2,1,13.7c-0.1-3.4,0.2-6.8,0.8-10.2c-6.2,9.4-11,19.6-14.2,30.4
		c-2.8,9.5-4.2,19.5-3.5,29.5c-1.2-12.6,0.3-25.3,4.3-37.3c4-12,10.4-23,18.8-32.2c9.1-10.1,20.3-18,32.8-23.1
		c13.7-5.6,28.4-8.2,43.2-7.6c17.3,0.7,34.3,4.9,49.8,12.5c15,7.3,28.4,17.5,39.2,30.1c3.1,3.6,5.9,7.4,8.5,11.4
		c-6.8-11.6-14.8-22.5-23.7-32.5c-10.4-11.7-22.5-21.7-36.1-29.5c-14.7-8.5-31.2-13.8-48.1-15.8c-18-2.1-36.3-0.3-53.6,5.3
		C246,136.8,229.4,146,215.6,158c-11.2,9.8-20.6,21.6-27.5,34.7c-6.3,12-10.2,25.1-11.5,38.6c-0.6,5.8-0.7,11.7-0.3,17.5
		c4-12,10.4-23,18.8-32.2c6.7-7.4,14.5-13.7,23.2-18.4c1.5-0.8,3-1.6,4.6-2.3c-9.9,8.6-18.3,18.8-24.7,30.1
		c-5.5,9.7-9.3,20.1-11.4,31c-1,5.4-1.5,10.8-1.5,16.3c-0.2-5.2,0.1-10.5,0.8-15.6c1.5-10,4.5-19.7,8.8-28.8
		c5.2-11.1,12.3-21.2,21-29.8c2.2-2.1,4.4-4.1,6.7-6c-0.9,6.3-0.6,12.7,0.9,18.8c1.5,6.3,4.2,12.3,7.9,17.7
		c-5.5-0.5-11,0-16.4,1.6c5.4-2.8,11.1-5,17.1-6.6c1.9-0.5,3.8-0.9,5.7-1.2c-2.3,8.2-3.1,16.8-2.3,25.3c1.3,13,5.5,25.5,12.4,36.5
		c7.4,11.8,17.2,21.8,28.5,29.8c12.3,8.7,25.9,15.2,40.2,19.8c13.5,4.3,27.4,7.3,41.4,8.8c10,1.1,20.1,1.4,30.1,0.7
		c9.5-0.6,19-2.3,28.2-4.9c-8.5,5.6-17.7,10.1-27.3,13.3c-11.6,3.9-23.7,6.3-35.8,7.4c-13.4,1.1-27-0.1-40.1-3.8
		c-14.6-4.1-28.6-10.8-40.9-19.9c-11.8-8.7-21.8-19.8-29.2-32.5c-6.9-11.9-10.9-25.3-11.8-38.9c-0.7-10.9,0.5-21.8,3.6-32.3
		c-0.1,4.6,0.4,9.2,1.5,13.7c3.1,13.3,9.8,25.4,18.8,35.3c8,8.8,17.8,15.8,28.6,20.7c-9.7-2.2-18.7-6.9-26.4-13.6
		c-7.6-6.6-13.6-15-17.3-24.5c-2.3-5.9-3.7-12.1-4-18.4c1.3,9.9,4.6,19.3,9.6,27.8c6.6,11.2,15.8,20.6,26.8,27.6
		c13.1,8.3,28,13.1,43.4,14.8c13,1.4,26.1,0.7,38.9-2c11.2-2.4,22.2-6.1,32.4-11.3c11.8-5.9,22.5-13.8,31.6-23.3
		c10.3-10.7,18.5-23.3,24.3-37c5.1-12.2,8.2-25.1,9.1-38.3c0.3-5,0.2-10.1-0.3-15.1c-3,10.8-7.8,21-14.1,30.1
		c-6.2,8.9-13.6,16.9-22,23.7c-10.1,8.2-21.7,14.6-34.1,18.8c-13,4.4-26.7,6.6-40.4,6.5c-14.2-0.1-28.3-2.9-41.5-8.2
		c-12.1-4.8-23.2-12-32.6-20.9c-9.1-8.6-16.4-19.1-21.4-30.7c-3.9-8.9-6.2-18.5-7.1-28.2c5.6,14.3,14.2,27.1,24.9,37.5
		c11.1,10.7,24.3,19,38.6,24.4c13.8,5.2,28.5,7.7,43.2,7.5c14.5-0.2,28.8-3.1,42.3-8.5c12.5-5,24-12.1,34-20.9
		c10.7-9.5,19.5-21.1,26-34c5.8-11.5,9.6-23.9,11.3-36.7c1.6-12.1,1.1-24.5-1.4-36.4c-3-13.8-9.1-26.7-17.6-37.8
		c-8-10.5-18.2-19.2-30-25.2C444,161.2,427.2,166.8,409.3,170z M249.1,135c12.6,0,23.4,9.8,24.8,22.4c1.4,12.6-7.1,24.1-19.3,26.4
		c-12.2,2.3-23.9-5.3-26.8-17.5C224.9,154.1,235.2,142,247.4,135C248,135,248.5,135,249.1,135z"/>
</g>
</svg>